<mxfile host="app.diagrams.net" modified="2023-05-18T08:44:32.698Z" agent="Mozilla/5.0 (Windows NT 10.0; Win64; x64) AppleWebKit/537.36 (KHTML, like Gecko) Chrome/113.0.0.0 Safari/537.36 Edg/113.0.1774.42" etag="whIxEnG2uqc_XAzHyQr6" version="21.3.2" type="github">
  <diagram name="第 1 页" id="VydVJY1ClUuj6teuJr8q">
    <mxGraphModel dx="1379" dy="1933" grid="1" gridSize="10" guides="1" tooltips="1" connect="1" arrows="1" fold="1" page="1" pageScale="1" pageWidth="827" pageHeight="1169" math="0" shadow="0">
      <root>
        <mxCell id="0" />
        <mxCell id="1" parent="0" />
        <mxCell id="e1WVAPQds0ct3WjiwAU8-83" style="edgeStyle=orthogonalEdgeStyle;rounded=0;orthogonalLoop=1;jettySize=auto;html=1;strokeColor=#6666FF;" edge="1" parent="1" source="e1WVAPQds0ct3WjiwAU8-22" target="e1WVAPQds0ct3WjiwAU8-21">
          <mxGeometry relative="1" as="geometry" />
        </mxCell>
        <mxCell id="e1WVAPQds0ct3WjiwAU8-22" value="三方通知" style="rounded=1;whiteSpace=wrap;html=1;" vertex="1" parent="1">
          <mxGeometry x="1010" y="325" width="120" height="60" as="geometry" />
        </mxCell>
        <mxCell id="e1WVAPQds0ct3WjiwAU8-14" value="收入" style="rounded=1;whiteSpace=wrap;html=1;" vertex="1" parent="1">
          <mxGeometry x="624" y="710" width="120" height="60" as="geometry" />
        </mxCell>
        <mxCell id="e1WVAPQds0ct3WjiwAU8-67" style="edgeStyle=orthogonalEdgeStyle;rounded=0;orthogonalLoop=1;jettySize=auto;html=1;strokeColor=#6666FF;" edge="1" parent="1" source="e1WVAPQds0ct3WjiwAU8-16" target="e1WVAPQds0ct3WjiwAU8-17">
          <mxGeometry relative="1" as="geometry" />
        </mxCell>
        <mxCell id="e1WVAPQds0ct3WjiwAU8-16" value="销售订单" style="rounded=1;whiteSpace=wrap;html=1;" vertex="1" parent="1">
          <mxGeometry x="1010" y="100" width="120" height="60" as="geometry" />
        </mxCell>
        <mxCell id="e1WVAPQds0ct3WjiwAU8-82" style="edgeStyle=orthogonalEdgeStyle;rounded=0;orthogonalLoop=1;jettySize=auto;html=1;strokeColor=#6666FF;" edge="1" parent="1" source="e1WVAPQds0ct3WjiwAU8-17" target="e1WVAPQds0ct3WjiwAU8-22">
          <mxGeometry relative="1" as="geometry" />
        </mxCell>
        <mxCell id="e1WVAPQds0ct3WjiwAU8-17" value="Saas授权记录" style="rounded=1;whiteSpace=wrap;html=1;" vertex="1" parent="1">
          <mxGeometry x="1010" y="225" width="120" height="60" as="geometry" />
        </mxCell>
        <mxCell id="e1WVAPQds0ct3WjiwAU8-77" style="rounded=0;orthogonalLoop=1;jettySize=auto;html=1;entryX=0.5;entryY=0;entryDx=0;entryDy=0;strokeColor=#6666FF;" edge="1" parent="1" source="e1WVAPQds0ct3WjiwAU8-18" target="e1WVAPQds0ct3WjiwAU8-27">
          <mxGeometry relative="1" as="geometry" />
        </mxCell>
        <mxCell id="e1WVAPQds0ct3WjiwAU8-81" style="edgeStyle=orthogonalEdgeStyle;rounded=0;orthogonalLoop=1;jettySize=auto;html=1;entryX=0.5;entryY=0;entryDx=0;entryDy=0;strokeColor=#6666FF;" edge="1" parent="1" source="e1WVAPQds0ct3WjiwAU8-18" target="e1WVAPQds0ct3WjiwAU8-16">
          <mxGeometry relative="1" as="geometry" />
        </mxCell>
        <mxCell id="e1WVAPQds0ct3WjiwAU8-18" value="Boss授权订单" style="rounded=1;whiteSpace=wrap;html=1;strokeColor=#6666FF;fillColor=#6666FF;" vertex="1" parent="1">
          <mxGeometry x="730" y="-80" width="120" height="60" as="geometry" />
        </mxCell>
        <mxCell id="e1WVAPQds0ct3WjiwAU8-76" style="rounded=0;orthogonalLoop=1;jettySize=auto;html=1;strokeColor=#00FF80;" edge="1" parent="1" source="e1WVAPQds0ct3WjiwAU8-19">
          <mxGeometry relative="1" as="geometry">
            <mxPoint x="575" y="90" as="targetPoint" />
          </mxGeometry>
        </mxCell>
        <mxCell id="e1WVAPQds0ct3WjiwAU8-19" value="Boss换购订单" style="rounded=1;whiteSpace=wrap;html=1;fillColor=#00FF80;" vertex="1" parent="1">
          <mxGeometry x="515" y="-80" width="120" height="60" as="geometry" />
        </mxCell>
        <mxCell id="e1WVAPQds0ct3WjiwAU8-84" style="edgeStyle=orthogonalEdgeStyle;rounded=0;orthogonalLoop=1;jettySize=auto;html=1;entryX=0.5;entryY=0;entryDx=0;entryDy=0;strokeColor=#6666FF;" edge="1" parent="1" source="e1WVAPQds0ct3WjiwAU8-21" target="e1WVAPQds0ct3WjiwAU8-15">
          <mxGeometry relative="1" as="geometry" />
        </mxCell>
        <mxCell id="e1WVAPQds0ct3WjiwAU8-21" value="商户主应用管理" style="rounded=1;whiteSpace=wrap;html=1;" vertex="1" parent="1">
          <mxGeometry x="1010" y="425" width="120" height="60" as="geometry" />
        </mxCell>
        <mxCell id="e1WVAPQds0ct3WjiwAU8-85" style="edgeStyle=orthogonalEdgeStyle;rounded=0;orthogonalLoop=1;jettySize=auto;html=1;entryX=1;entryY=0.5;entryDx=0;entryDy=0;strokeColor=#6666FF;" edge="1" parent="1" source="e1WVAPQds0ct3WjiwAU8-15" target="e1WVAPQds0ct3WjiwAU8-14">
          <mxGeometry relative="1" as="geometry">
            <Array as="points">
              <mxPoint x="1070" y="740" />
            </Array>
          </mxGeometry>
        </mxCell>
        <mxCell id="e1WVAPQds0ct3WjiwAU8-15" value="分润" style="rounded=1;whiteSpace=wrap;html=1;" vertex="1" parent="1">
          <mxGeometry x="1010" y="525" width="120" height="60" as="geometry" />
        </mxCell>
        <mxCell id="e1WVAPQds0ct3WjiwAU8-78" style="edgeStyle=orthogonalEdgeStyle;rounded=0;orthogonalLoop=1;jettySize=auto;html=1;" edge="1" parent="1" source="e1WVAPQds0ct3WjiwAU8-27" target="e1WVAPQds0ct3WjiwAU8-53">
          <mxGeometry relative="1" as="geometry" />
        </mxCell>
        <mxCell id="e1WVAPQds0ct3WjiwAU8-27" value="" style="swimlane;startSize=0;" vertex="1" parent="1">
          <mxGeometry x="409" y="80" width="330" height="230" as="geometry" />
        </mxCell>
        <mxCell id="e1WVAPQds0ct3WjiwAU8-26" value="库存汇总" style="rounded=1;whiteSpace=wrap;html=1;" vertex="1" parent="e1WVAPQds0ct3WjiwAU8-27">
          <mxGeometry x="32" y="30" width="120" height="60" as="geometry" />
        </mxCell>
        <mxCell id="e1WVAPQds0ct3WjiwAU8-25" value="库存流水" style="rounded=1;whiteSpace=wrap;html=1;" vertex="1" parent="e1WVAPQds0ct3WjiwAU8-27">
          <mxGeometry x="180" y="30" width="120" height="60" as="geometry" />
        </mxCell>
        <mxCell id="e1WVAPQds0ct3WjiwAU8-13" value="限期库存" style="rounded=1;whiteSpace=wrap;html=1;" vertex="1" parent="e1WVAPQds0ct3WjiwAU8-27">
          <mxGeometry x="32" y="120" width="120" height="60" as="geometry" />
        </mxCell>
        <mxCell id="e1WVAPQds0ct3WjiwAU8-28" value="1、提供库存查询&lt;br&gt;2、写入库存&lt;br&gt;3、扣减库存&lt;br&gt;4、限期触发库存变更" style="text;html=1;align=center;verticalAlign=middle;resizable=0;points=[];autosize=1;strokeColor=none;fillColor=none;" vertex="1" parent="e1WVAPQds0ct3WjiwAU8-27">
          <mxGeometry x="170" y="130" width="140" height="70" as="geometry" />
        </mxCell>
        <mxCell id="e1WVAPQds0ct3WjiwAU8-75" style="rounded=0;orthogonalLoop=1;jettySize=auto;html=1;entryX=0.5;entryY=0;entryDx=0;entryDy=0;strokeColor=#FF0080;" edge="1" parent="1" source="e1WVAPQds0ct3WjiwAU8-7" target="e1WVAPQds0ct3WjiwAU8-27">
          <mxGeometry relative="1" as="geometry" />
        </mxCell>
        <mxCell id="e1WVAPQds0ct3WjiwAU8-7" value="采购订单" style="rounded=1;whiteSpace=wrap;html=1;fillColor=#FF0080;" vertex="1" parent="1">
          <mxGeometry x="320" y="-80" width="120" height="60" as="geometry" />
        </mxCell>
        <mxCell id="e1WVAPQds0ct3WjiwAU8-72" style="rounded=0;orthogonalLoop=1;jettySize=auto;html=1;entryX=0.5;entryY=0;entryDx=0;entryDy=0;strokeColor=#FF0080;" edge="1" parent="1" source="e1WVAPQds0ct3WjiwAU8-31" target="e1WVAPQds0ct3WjiwAU8-7">
          <mxGeometry relative="1" as="geometry" />
        </mxCell>
        <mxCell id="e1WVAPQds0ct3WjiwAU8-73" style="edgeStyle=orthogonalEdgeStyle;rounded=0;orthogonalLoop=1;jettySize=auto;html=1;strokeColor=#00FF80;" edge="1" parent="1" source="e1WVAPQds0ct3WjiwAU8-31" target="e1WVAPQds0ct3WjiwAU8-19">
          <mxGeometry relative="1" as="geometry" />
        </mxCell>
        <mxCell id="e1WVAPQds0ct3WjiwAU8-74" style="rounded=0;orthogonalLoop=1;jettySize=auto;html=1;exitX=0.75;exitY=1;exitDx=0;exitDy=0;entryX=0.5;entryY=0;entryDx=0;entryDy=0;strokeColor=#6666FF;" edge="1" parent="1" source="e1WVAPQds0ct3WjiwAU8-31" target="e1WVAPQds0ct3WjiwAU8-18">
          <mxGeometry relative="1" as="geometry" />
        </mxCell>
        <mxCell id="e1WVAPQds0ct3WjiwAU8-31" value="" style="swimlane;startSize=0;" vertex="1" parent="1">
          <mxGeometry x="400" y="-320" width="350" height="140" as="geometry" />
        </mxCell>
        <mxCell id="e1WVAPQds0ct3WjiwAU8-9" value="应用管理" style="rounded=1;whiteSpace=wrap;html=1;" vertex="1" parent="e1WVAPQds0ct3WjiwAU8-31">
          <mxGeometry x="40" y="40" width="120" height="60" as="geometry" />
        </mxCell>
        <mxCell id="e1WVAPQds0ct3WjiwAU8-10" value="应用规格" style="rounded=1;whiteSpace=wrap;html=1;" vertex="1" parent="e1WVAPQds0ct3WjiwAU8-31">
          <mxGeometry x="200" y="40" width="120" height="60" as="geometry" />
        </mxCell>
        <mxCell id="e1WVAPQds0ct3WjiwAU8-33" value="业绩" style="rounded=1;whiteSpace=wrap;html=1;" vertex="1" parent="1">
          <mxGeometry x="406" y="710" width="120" height="60" as="geometry" />
        </mxCell>
        <mxCell id="e1WVAPQds0ct3WjiwAU8-79" style="rounded=0;orthogonalLoop=1;jettySize=auto;html=1;exitX=0.5;exitY=1;exitDx=0;exitDy=0;" edge="1" parent="1" source="e1WVAPQds0ct3WjiwAU8-53" target="e1WVAPQds0ct3WjiwAU8-33">
          <mxGeometry relative="1" as="geometry" />
        </mxCell>
        <mxCell id="e1WVAPQds0ct3WjiwAU8-80" style="rounded=0;orthogonalLoop=1;jettySize=auto;html=1;entryX=0.5;entryY=0;entryDx=0;entryDy=0;exitX=0.5;exitY=1;exitDx=0;exitDy=0;" edge="1" parent="1" source="e1WVAPQds0ct3WjiwAU8-53" target="e1WVAPQds0ct3WjiwAU8-14">
          <mxGeometry relative="1" as="geometry" />
        </mxCell>
        <mxCell id="e1WVAPQds0ct3WjiwAU8-53" value="Vertical Container" style="swimlane;whiteSpace=wrap;html=1;" vertex="1" parent="1">
          <mxGeometry x="406" y="380" width="338" height="230" as="geometry" />
        </mxCell>
        <mxCell id="e1WVAPQds0ct3WjiwAU8-50" value="余额流水" style="rounded=1;whiteSpace=wrap;html=1;" vertex="1" parent="e1WVAPQds0ct3WjiwAU8-53">
          <mxGeometry x="28" y="50" width="120" height="60" as="geometry" />
        </mxCell>
        <mxCell id="e1WVAPQds0ct3WjiwAU8-51" value="多账号" style="rounded=1;whiteSpace=wrap;html=1;" vertex="1" parent="e1WVAPQds0ct3WjiwAU8-53">
          <mxGeometry x="188" y="50" width="120" height="60" as="geometry" />
        </mxCell>
        <mxCell id="e1WVAPQds0ct3WjiwAU8-52" value="收款单" style="rounded=1;whiteSpace=wrap;html=1;" vertex="1" parent="e1WVAPQds0ct3WjiwAU8-53">
          <mxGeometry x="88" y="150" width="120" height="60" as="geometry" />
        </mxCell>
      </root>
    </mxGraphModel>
  </diagram>
</mxfile>
